<svg xmlns="http://www.w3.org/2000/svg" width="108.245" height="76.11" viewBox="0 0 108.245 76.11"><defs><style>.a{fill:#d1d1d1;}</style></defs><g transform="translate(-14.933 -64)"><path class="a" d="M120.916,75.909a13.6,13.6,0,0,0-9.57-9.632C102.9,64,69.055,64,69.055,64s-33.849,0-42.291,2.277a13.6,13.6,0,0,0-9.57,9.632c-2.262,8.5-2.262,26.223-2.262,26.223s0,17.727,2.262,26.223a13.4,13.4,0,0,0,9.57,9.478c8.442,2.277,42.291,2.277,42.291,2.277s33.849,0,42.291-2.277a13.4,13.4,0,0,0,9.57-9.478c2.262-8.5,2.262-26.223,2.262-26.223S123.178,84.4,120.916,75.909ZM57.985,118.226V86.037l28.291,16.1L57.985,118.226Z"/></g></svg>